<svg id="Layer_1" data-name="Layer 1" xmlns="http://www.w3.org/2000/svg" viewBox="0 0 384 512"><defs><style>.cls-1{fill:#fff;}</style></defs><title>attendance</title><path class="cls-1" d="M336,64H256a64,64,0,0,0-128,0H48A48,48,0,0,0,0,112V464a48,48,0,0,0,48,48H336a48,48,0,0,0,48-48V112A48,48,0,0,0,336,64ZM192,40a24,24,0,1,1-24,24A23.94,23.94,0,0,1,192,40ZM313.2,271.8l-143,141.8a12,12,0,0,1-17-.1L70.6,330.2a12,12,0,0,1,.1-17L99.1,285a12,12,0,0,1,17,.1l46,46.4,106-105.2a12,12,0,0,1,17,.1l28.2,28.4A12,12,0,0,1,313.2,271.8Z" transform="translate(0 0)"/></svg>