<svg id="Layer_1" data-name="Layer 1" xmlns="http://www.w3.org/2000/svg" viewBox="0 0 576 448"><defs><style>.cls-1{fill:#fff;}</style></defs><title>dashboard</title><path class="cls-1" d="M288,32C128.94,32,0,160.94,0,320A286.5,286.5,0,0,0,39.06,464.8c5.61,9.62,16.3,15.2,27.44,15.2h443c11.14,0,21.83-5.58,27.44-15.2A286.5,286.5,0,0,0,576,320C576,160.94,447.06,32,288,32Zm0,64c14.71,0,26.58,10.13,30.32,23.65-1.11,2.26-2.64,4.23-3.45,6.67L305.65,154c-5.13,3.49-11,6-17.64,6a32,32,0,0,1,0-64ZM96,384a32,32,0,1,1,32-32A32,32,0,0,1,96,384Zm48-160a32,32,0,1,1,32-32A32,32,0,0,1,144,224Zm246.77-72.41-61.33,184A62.8,62.8,0,0,1,343.12,416H232.88a63.34,63.34,0,0,1,51-95.59l61.34-184a24,24,0,0,1,45.53,15.19Zm14.66,57.2L421,162.24A31.54,31.54,0,0,1,432,160a32,32,0,0,1,0,64c-11.38,0-20.89-6.28-26.57-15.22ZM480,384a32,32,0,1,1,32-32A32,32,0,0,1,480,384Z" transform="translate(0 -32)"/></svg>