<svg id="Layer_1" data-name="Layer 1" xmlns="http://www.w3.org/2000/svg" viewBox="0 0 576 512"><defs><style>.cls-1{fill:#fff;}</style></defs><title>email</title><path class="cls-1" d="M160,448c-25.6,0-51.2-22.4-64-32-64-44.8-83.2-60.8-96-70.4V480a32,32,0,0,0,32,32H288a32,32,0,0,0,32-32V345.6c-12.8,9.6-32,25.6-96,70.4C211.2,425.6,185.6,448,160,448ZM288,256H32A32,32,0,0,0,0,288v16c25.6,19.2,22.4,19.2,115.2,86.4C124.8,396.8,144,416,160,416s35.2-19.2,44.8-22.4c92.8-67.2,89.6-67.2,115.2-86.4V288A32,32,0,0,0,288,256Zm256-96H224a32,32,0,0,0-32,32v32h96a64.09,64.09,0,0,1,63.71,57.82l.29-.22V416H544a32,32,0,0,0,32-32V192A32,32,0,0,0,544,160ZM512,288H448V224h64ZM160,192a64.07,64.07,0,0,1,64-64H448V32A32,32,0,0,0,416,0H96A32,32,0,0,0,64,32V224h96Z" transform="translate(0 0)"/></svg>