<svg id="Layer_1" data-name="Layer 1" xmlns="http://www.w3.org/2000/svg" viewBox="0 0 576.05 447.95"><defs><style>.cls-1{fill:#fff;}</style></defs><title>home</title><path class="cls-1" d="M280.37,148.26,96,300.11V464a16,16,0,0,0,16,16l112.06-.29a16,16,0,0,0,15.92-16V368a16,16,0,0,1,16-16h64a16,16,0,0,1,16,16v95.64a16,16,0,0,0,15.95,16.05H352L464,480a16,16,0,0,0,16-16V300L295.67,148.26a12.19,12.19,0,0,0-15.3,0ZM571.6,251.47,488,182.56V44.05a12,12,0,0,0-12-12H420a12,12,0,0,0-12,12v72.61L318.47,43a48,48,0,0,0-61,0L4.34,251.47a12,12,0,0,0-1.6,16.89h0l25.5,31A12,12,0,0,0,45.13,301l0,0L280.37,107.26a12.19,12.19,0,0,1,15.3,0L530.9,301a12,12,0,0,0,16.9-1.59h0l25.5-31a12,12,0,0,0-1.65-16.89l0,0Z" transform="translate(0.02 -32.05)"/></svg>