<svg id="Layer_1" data-name="Layer 1" xmlns="http://www.w3.org/2000/svg" viewBox="0 0 512 448"><defs><style>.cls-1{fill:red;}</style></defs><title>absent</title><path class="cls-1" d="M464,32H48A48,48,0,0,0,0,80V432a48,48,0,0,0,48,48H464a48,48,0,0,0,48-48V80A48,48,0,0,0,464,32ZM380.4,322.5a12.31,12.31,0,0,1,0,17.4l-40.5,40.5a12.31,12.31,0,0,1-17.4,0L256,313.3l-66.5,67.1a12.31,12.31,0,0,1-17.4,0l-40.5-40.5a12.31,12.31,0,0,1,0-17.4L198.7,256l-67.1-66.5a12.31,12.31,0,0,1,0-17.4l40.5-40.5a12.31,12.31,0,0,1,17.4,0L256,198.7l66.5-67.1a12.31,12.31,0,0,1,17.4,0l40.5,40.5a12.31,12.31,0,0,1,0,17.4L313.3,256Z" transform="translate(0 -32)"/></svg>