<?xml version="1.0" encoding="utf-8"?>
<!-- Generator: Adobe Illustrator 23.0.5, SVG Export Plug-In . SVG Version: 6.00 Build 0)  -->
<svg version="1.1" id="Layer_1" xmlns="http://www.w3.org/2000/svg" xmlns:xlink="http://www.w3.org/1999/xlink" x="0px" y="0px"
	 viewBox="0 0 448 448" style="enable-background:new 0 0 448 448;" xml:space="preserve">
<style type="text/css">
	.st0{fill:#B345BB;}
</style>
<title>present</title>
<path class="st0" d="M400,448H48c-26.5,0-48-21.5-48-48V48C0,21.5,21.5,0,48,0h352c26.5,0,48,21.5,48,48v352
	C448,426.5,426.5,448,400,448z M195.3,349.9l184-184c6.2-6.2,6.3-16.4,0-22.6c0,0,0,0,0,0l-22.6-22.6c-6.2-6.2-16.4-6.3-22.6,0
	c0,0,0,0,0,0L184,270.7l-70.1-70.1c-6.2-6.2-16.4-6.3-22.6,0c0,0,0,0,0,0l-22.6,22.6c-6.2,6.2-6.3,16.4,0,22.6c0,0,0,0,0,0l104,104
	C178.9,356.2,189.1,356.2,195.3,349.9z"/>
</svg>
