<svg id="Layer_1" data-name="Layer 1" xmlns="http://www.w3.org/2000/svg" viewBox="0 0 448 448"><defs><style>.cls-1{fill:#00eb17;}</style></defs><title>present</title><path class="cls-1" d="M400,480H48A48,48,0,0,1,0,432V80A48,48,0,0,1,48,32H400a48,48,0,0,1,48,48V432A48,48,0,0,1,400,480ZM195.31,381.94l184-184a16,16,0,0,0,0-22.63l-22.62-22.62a16,16,0,0,0-22.63,0L184,302.74l-70.06-70.05a16,16,0,0,0-22.63,0L68.69,255.31a16,16,0,0,0,0,22.63l104,104a16,16,0,0,0,22.62,0Z" transform="translate(0 -32)"/></svg>