<svg id="Layer_1" data-name="Layer 1" xmlns="http://www.w3.org/2000/svg" viewBox="0 0 575.99 448"><defs><style>.cls-1{fill:#fff;}</style></defs><title>subjects</title><path class="cls-1" d="M542.22,32.05c-54.8,3.11-163.72,14.43-231,55.59A15.37,15.37,0,0,0,304,100.81V464.68c0,11.55,12.63,18.85,23.28,13.49,69.18-34.82,169.23-44.32,218.7-46.92,16.89-.89,30-14.43,30-30.66V62.75C576,45,560.64,31,542.22,32.05ZM264.73,87.64C197.5,46.48,88.58,35.17,33.78,32.05,15.36,31,0,45,0,62.75V400.6c0,16.24,13.13,29.78,30,30.66,49.49,2.6,149.59,12.11,218.77,46.95,10.62,5.35,23.21-1.94,23.21-13.46V100.63A15.05,15.05,0,0,0,264.73,87.64Z" transform="translate(0 -32)"/></svg>