<svg id="Layer_1" data-name="Layer 1" xmlns="http://www.w3.org/2000/svg" viewBox="0 0 448 512"><defs><style>.cls-1{fill:#fff;}</style></defs><title>timetable</title><path class="cls-1" d="M0,464a48,48,0,0,0,48,48H400a48,48,0,0,0,48-48V192H0ZM64,272a16,16,0,0,1,16-16h96a16,16,0,0,1,16,16v96a16,16,0,0,1-16,16H80a16,16,0,0,1-16-16ZM400,64H352V16A16,16,0,0,0,336,0H304a16,16,0,0,0-16,16V64H160V16A16,16,0,0,0,144,0H112A16,16,0,0,0,96,16V64H48A48,48,0,0,0,0,112v48H448V112A48,48,0,0,0,400,64Z" transform="translate(0 0)"/></svg>